:FULLY-SPECIFIED
:FORCE-ALL-JOINTS-BE-3DOF
:DEGREES
374
root 6.19436 16.5063 -15.8858 9.38574 -17.2136 -6.13739
lfemur -45.225 22.9135 -13.1367
ltibia 67.0452 -0 0
lfoot -9.90764 -1.97582 -0.0163436
ltoes 13.2381 -0 0
rfemur -24.5118 -3.42261 31.1854
rtibia 41.7309 -0 0
rfoot -21.4011 0.718619 0.000924573
rtoes 17.643 -0 0
lowerback 5.18929 1.67504 3.36351
upperback 2.5843 2.3749 1.03426
thorax -0.147448 1.20473 -0.945067
lowerneck -7.84205 -1.29757 2.91275
upperneck -0.531813 -2.04186 2.1568
head 1.14073 -0.983121 0.114176
lclavicle -2.28602e-015 0 0
lhumerus -40.2384 -23.0579 94.9561
lradius 56.183 -0 0
lwrist 18.3663 0 0
lhand -21.2027 2.60064 0.0196393
lfingers 7.12502 -0 0
lthumb 5.17822 32.5046 0.0171013
rclavicle -2.28602e-015 0 0
rhumerus -37.5935 12.6745 -93.4618
rradius 61.0141 -0 0
rwrist 9.44849 0 0
rhand -9.85208 -19.4896 0.0471672
rfingers 7.12502 -0 0
rthumb 16.1254 -48.8251 0.0481914
375
root 6.15199 16.5071 -15.766 9.52824 -17.9555 -6.34567
lfemur -46.784 22.7648 -13.9173
ltibia 65.8075 0 0
lfoot -10.2068 -1.35054 0
ltoes 13.3356 0 0
rfemur -23.8511 -2.77204 31.3528
rtibia 41.4743 0 0
rfoot -21.7708 0.689972 0
rtoes 18.0634 0 0
lowerback 5.28641 1.78073 3.59832
upperback 2.59657 2.52951 0.979941
thorax -0.17678 1.28344 -1.14082
lowerneck -7.81997 -1.15941 3.09448
upperneck -0.524184 -1.87056 2.01631
head 1.13391 -0.90045 0.0459868
lclavicle -2.28602e-015 0 0
lhumerus -39.9416 -23.2189 94.5087
lradius 55.8802 0 0
lwrist 18.282 0 0
lhand -21.9529 2.30116 0
lfingers 7.12502 0 0
lthumb 4.45424 32.2343 0
rclavicle -2.28602e-015 0 0
rhumerus -37.5524 13.1367 -93.5797
rradius 60.1793 0 0
rwrist 10.0238 0 0
rhand -9.12801 -18.7452 0
rfingers 7.12502 0 0
rthumb 16.8232 -768.036 0
376
root 6.1015 16.5085 -15.6175 9.47265 -18.5181 -6.46602
lfemur -46.1268 21.453 -13.2803
ltibia 62.9971 -0 0
lfoot -9.93109 0.0162413 0.033049
ltoes 13.4591 -0 0
rfemur -22.8891 -2.53196 31.3753
rtibia 41.1259 -0 0
rfoot -21.9873 0.657025 0.000622413
rtoes 17.9378 -0 0
lowerback 5.16334 1.89052 3.69345
upperback 2.54979 2.67612 0.930512
thorax -0.139448 1.35754 -1.24532
lowerneck -7.6958 -1.10294 3.2344
upperneck -0.394154 -1.80587 1.98576
head 1.15348 -0.866186 0.0153808
lclavicle 9.73051e-014 4.37326e-015 0
lhumerus -40.0536 -23.068 94.3377
lradius 55.6941 -0 0
lwrist 18.2856 0 0
lhand -21.5553 2.49505 0.00673056
lfingers 7.12502 -0 0
lthumb 4.83805 32.4162 0.00609696
rclavicle 9.73051e-014 4.37326e-015 0
rhumerus -37.8242 13.368 -93.6829
rradius 59.843 -0 0
rwrist 10.089 0 0
rhand -9.52384 -18.8164 0.00246083
rfingers 7.12502 -0 0
rthumb 16.4419 -48.1351 0.00330077
377
root 6.05101 16.51 -15.4689 9.41812 -19.0808 -6.58619
lfemur -45.491 20.1347 -12.6649
ltibia 60.1867 -0 0
lfoot -9.65466 1.38317 0.0595118
ltoes 13.5826 -0 0
rfemur -21.9272 -2.29229 31.4018
rtibia 40.7775 -0 0
rfoot -22.2037 0.624076 0.00112035
rtoes 17.8123 -0 0
lowerback 5.04044 2.00051 3.78835
upperback 2.50288 2.82269 0.880957
thorax -0.102251 1.43171 -1.34977
lowerneck -7.57149 -1.04677 3.37445
upperneck -0.264163 -1.74112 1.95536
head 1.17304 -0.831912 -0.0152131
lclavicle 9.73051e-014 4.37326e-015 0
lhumerus -40.166 -22.9173 94.1665
lradius 55.508 -0 0
lwrist 18.2893 0 0
lhand -21.1577 2.68899 0.0121155
lfingers 7.12502 -0 0
lthumb 5.22188 32.5982 0.0109749
rclavicle 9.73051e-014 4.37326e-015 0
rhumerus -38.0966 13.5989 -93.7874
rradius 59.5066 -0 0
rwrist 10.1543 0 0
rhand -9.91967 -18.8876 0.00442964
rfingers 7.12502 -0 0
rthumb 16.0605 -48.2343 0.00594157
378
root 6.00052 16.5114 -15.3204 9.36465 -19.6437 -6.70621
lfemur -44.8752 18.8101 -12.07
ltibia 57.3764 -0 0
lfoot -9.37768 2.7502 0.0793726
ltoes 13.7061 -0 0
rfemur -20.9653 -2.0531 31.4323
rtibia 40.4291 -0 0
rfoot -22.4202 0.591126 0.00149382
rtoes 17.6867 -0 0
lowerback 4.91772 2.1107 3.88302
upperback 2.45584 2.96922 0.831275
thorax -0.0651871 1.50595 -1.45418
lowerneck -7.44705 -0.990908 3.51461
upperneck -0.134211 -1.67629 1.9251
head 1.19257 -0.797627 -0.0457952
lclavicle 9.73051e-014 4.37326e-015 0
lhumerus -40.2788 -22.767 93.9953
lradius 55.3219 -0 0
lwrist 18.2929 0 0
lhand -20.7601 2.88295 0.0161545
lfingers 7.12502 -0 0
lthumb 5.60573 32.7802 0.0146337
rclavicle 9.73051e-014 4.37326e-015 0
rhumerus -38.3698 13.8292 -93.8931
rradius 59.1703 -0 0
rwrist 10.2195 0 0
rhand -10.3155 -18.9589 0.00590633
rfingers 7.12502 -0 0
rthumb 15.6792 -48.3335 0.00792228
379
root 5.95003 16.5129 -15.1719 9.31225 -20.2066 -6.8261
lfemur -44.2786 17.4797 -11.4945
ltibia 54.566 -0 0
lfoot -9.10031 4.11732 0.0926197
ltoes 13.8296 -0 0
rfemur -20.0034 -1.81446 31.4668
rtibia 40.0807 -0 0
rfoot -22.6366 0.558174 0.00174279
rtoes 17.5612 -0 0
lowerback 4.79516 2.2211 3.97746
upperback 2.40866 3.1157 0.781466
thorax -0.0282576 1.58025 -1.55854
lowerneck -7.32247 -0.935349 3.65489
upperneck -0.00429794 -1.6114 1.89499
head 1.21209 -0.763332 -0.0763653
lclavicle 9.73051e-014 4.37326e-015 0
lhumerus -40.3919 -22.617 93.8239
lradius 55.1358 -0 0
lwrist 18.2965 0 0
lhand -20.3625 3.07694 0.0188473
lfingers 7.12502 -0 0
lthumb 5.98958 32.9623 0.0170729
rclavicle 9.73051e-014 4.37326e-015 0
rhumerus -38.6436 14.0591 -94
rradius 58.8339 -0 0
rwrist 10.2847 0 0
rhand -10.7113 -19.0301 0.00689083
rfingers 7.12502 -0 0
rthumb 15.2978 -48.4327 0.00924281
380
root 5.89954 16.5143 -15.0233 9.26092 -20.7696 -6.94588
lfemur -43.7001 16.1438 -10.9375
ltibia 51.7556 -0 0
lfoot -8.8227 5.48449 0.0992452
ltoes 13.9531 -0 0
rfemur -19.0415 -1.57643 31.5053
rtibia 39.7323 -0 0
rfoot -22.8531 0.525222 0.00186728
rtoes 17.4356 -0 0
lowerback 4.67279 2.3317 4.07167
upperback 2.36135 3.26215 0.73153
thorax 0.00853778 1.65462 -1.66286
lowerneck -7.19776 -0.880096 3.79529
upperneck 0.125577 -1.54643 1.86504
head 1.23159 -0.729026 -0.106923
lclavicle 9.73051e-014 4.37326e-015 0
lhumerus -40.5054 -22.4673 93.6523
lradius 54.9497 -0 0
lwrist 18.3002 0 0
lhand -19.9648 3.27095 0.0201937
lfingers 7.12502 -0 0
lthumb 6.37344 33.1443 0.0182926
rclavicle 9.73051e-014 4.37326e-015 0
rhumerus -38.9182 14.2885 -94.1082
rradius 58.4976 -0 0
rwrist 10.35 0 0
rhand -11.1072 -19.1014 0.0073831
rfingers 7.12502 -0 0
rthumb 14.9165 -48.5319 0.00990309
381
root 5.84904 16.5158 -14.8748 9.21066 -21.3327 -7.06557
lfemur -43.1388 14.8026 -10.3981
ltibia 48.9452 -0 0
lfoot -8.54501 6.85167 0.0992452
ltoes 14.0766 -0 0
rfemur -18.0796 -1.33908 31.5479
rtibia 39.3839 -0 0
rfoot -23.0695 0.492269 0.00186728
rtoes 17.3101 -0 0
lowerback 4.55058 2.44249 4.16566
upperback 2.3139 3.40855 0.681465
thorax 0.045199 1.72906 -1.76714
lowerneck -7.07291 -0.825148 3.9358
upperneck 0.255415 -1.4814 1.83523
head 1.25107 -0.69471 -0.13747
lclavicle 9.73051e-014 4.37326e-015 0
lhumerus -40.6192 -22.3179 93.4807
lradius 54.7636 -0 0
lwrist 18.3038 0 0
lhand -19.5672 3.46495 0.0201937
lfingers 7.12502 -0 0
lthumb 6.75731 33.3264 0.0182926
rclavicle 9.73051e-014 4.37326e-015 0
rhumerus -39.1936 14.5173 -94.2176
rradius 58.1612 -0 0
rwrist 10.4152 0 0
rhand -11.503 -19.1726 0.0073831
rfingers 7.12502 -0 0
rthumb 14.5351 -48.6311 0.00990309
382
root 5.79855 16.5172 -14.7262 9.16146 -21.896 -7.1852
lfemur -42.5938 13.4564 -9.87542
ltibia 46.1348 -0 0
lfoot -8.2674 8.21884 0.0926197
ltoes 14.2001 -0 0
rfemur -17.1175 -1.10247 31.5943
rtibia 39.0355 -0 0
rfoot -23.286 0.459317 0.00174279
rtoes 17.1845 -0 0
lowerback 4.42855 2.55349 4.25941
upperback 2.26632 3.55492 0.63127
thorax 0.0817261 1.80356 -1.87137
lowerneck -6.94794 -0.770507 4.07644
upperneck 0.385215 -1.41631 1.80556
head 1.27053 -0.660384 -0.168004
lclavicle 9.73051e-014 4.37326e-015 0
lhumerus -40.7335 -22.1689 93.3089
lradius 54.5775 -0 0
lwrist 18.3075 0 0
lhand -19.1695 3.65896 0.0188473
lfingers 7.12502 -0 0
lthumb 7.14117 33.5084 0.0170729
rclavicle 9.73051e-014 4.37326e-015 0
rhumerus -39.4696 14.7457 -94.3283
rradius 57.8249 -0 0
rwrist 10.4805 0 0
rhand -11.8989 -19.2439 0.00689083
rfingers 7.12502 -0 0
rthumb 14.1538 -48.7303 0.00924281
383
root 5.74806 16.5187 -14.5777 9.11335 -22.4593 -7.30478
lfemur -42.0643 12.1056 -9.36862
ltibia 43.3244 -0 0
lfoot -7.99003 9.58596 0.0793726
ltoes 14.3236 -0 0
rfemur -16.1554 -0.866684 31.6448
rtibia 38.6871 -0 0
rfoot -23.5024 0.426365 0.00149382
rtoes 17.059 -0 0
lowerback 4.30669 2.66469 4.35293
upperback 2.2186 3.70124 0.580946
thorax 0.118119 1.87813 -1.97556
lowerneck -6.82283 -0.716173 4.21719
upperneck 0.514977 -1.35114 1.77605
head 1.28998 -0.626047 -0.198527
lclavicle 9.73051e-014 4.37326e-015 0
lhumerus -40.848 -22.0201 93.1369
lradius 54.3914 -0 0
lwrist 18.3111 0 0
lhand -18.7719 3.85295 0.0161545
lfingers 7.12502 -0 0
lthumb 7.52502 33.6905 0.0146337
rclavicle 9.73051e-014 4.37326e-015 0
rhumerus -39.7464 14.9735 -94.4402
rradius 57.4885 -0 0
rwrist 10.5457 0 0
rhand -12.2947 -19.3151 0.00590633
rfingers 7.12502 -0 0
rthumb 13.7724 -48.8295 0.00792228
